<?xml version="1.0" encoding="utf-8"?>
<!-- Generator: Adobe Illustrator 22.1.0, SVG Export Plug-In . SVG Version: 6.00 Build 0)  -->
<svg version="1.1" id="Layer_1" xmlns="http://www.w3.org/2000/svg" xmlns:xlink="http://www.w3.org/1999/xlink" x="0px" y="0px"
	 viewBox="0 0 512 512" style="enable-background:new 0 0 512 512;" xml:space="preserve">
<style type="text/css">
	.st0{enable-background:new    ;}
	.st1{fill:none;stroke:#A2DBDC;stroke-width:1.7844;stroke-miterlimit:10;}
</style>
<g class="st0">
	<path class="st1" d="M237.2,224.4c10.1-18.5,20.2-37,30.3-55.5c-24.5,91-49.1,182-73.6,273l-29.1,51.2
		C188.9,403.5,213,314,237.2,224.4z"/>
	<path class="st1" d="M125.5,215.2l29.1-51.2l114.3-0.4c-10.6,20.3-21.2,40.6-31.7,60.9C199.9,221.4,162.7,218.3,125.5,215.2z"/>
	<path class="st1" d="M136.1,89.6l29.1-51.2L154.6,164c-9.5,15.9-18.9,31.8-28.4,47.7C129.5,171,132.8,130.3,136.1,89.6z"/>
	<polygon class="st1" points="8,90 37.1,38.8 165.2,38.4 136.1,89.6 	"/>
	<path class="st1" d="M237.2,224.4C213,314,188.9,403.5,164.8,493.1c-10.3-69.5-20.7-138.9-31-208.4c-33.4-3.1-66.8-6.2-100.2-9.4
		C25,213.5,16.5,151.8,8,90l128.1-0.5l-10.6,125.6C162.7,218.3,199.9,221.4,237.2,224.4z"/>
</g>
</svg>
