<?xml version="1.0" encoding="utf-8"?>
<!-- Generator: Adobe Illustrator 22.1.0, SVG Export Plug-In . SVG Version: 6.00 Build 0)  -->
<svg version="1.1" id="Layer_1" xmlns="http://www.w3.org/2000/svg" xmlns:xlink="http://www.w3.org/1999/xlink" x="0px" y="0px"
	 viewBox="0 0 100 150" style="enable-background:new 0 0 100 150;" xml:space="preserve">
<style type="text/css">
	.st0{enable-background:new    ;}
	.st1{fill:none;stroke:#A2DBDC;stroke-width:0.5187;stroke-miterlimit:10;}
</style>
<g class="st0">
	<path class="st1" d="M78.4,63.3c2.9-5.4,5.9-10.8,8.8-16.1c-7.1,26.5-14.3,52.9-21.4,79.4l-8.5,14.9
		C64.4,115.4,71.4,89.4,78.4,63.3z"/>
	<path class="st1" d="M46,60.6l8.5-14.9l33.2-0.1c-3.1,5.9-6.1,11.8-9.2,17.7C67.6,62.4,56.8,61.5,46,60.6z"/>
	<path class="st1" d="M49.1,24.1l8.5-14.9l-3.1,36.5c-2.8,4.6-5.5,9.2-8.3,13.9C47.1,47.8,48.1,36,49.1,24.1z"/>
	<polygon class="st1" points="11.8,24.3 20.3,9.4 57.5,9.2 49.1,24.1 	"/>
	<path class="st1" d="M78.4,63.3c-7,26-14,52.1-21.1,78.1c-3-20.2-6-40.4-9-60.6C38.7,79.9,29,79,19.2,78.1c-2.5-18-5-35.9-7.4-53.9
		l37.2-0.1L46,60.6C56.8,61.5,67.6,62.4,78.4,63.3z"/>
</g>
</svg>
